<?xml version="1.0" encoding="UTF-8"?>
<svg id="Layer_1" data-name="Layer 1" xmlns="http://www.w3.org/2000/svg" viewBox="0 0 471.75 515.35">
  <path d="M448.55,375l-209.26,120.34L30.03,375l.17-242.1L239.34,12.6l208.45,119.84.87,1.76-.12,240.81ZM229.57,236.4v-48.86l-84.58-48.59,94.29-54.7,94.29,53.92-.33,1.09-82.32,47.32-1.92,1.75v48.07l169.68-98.23L239.29,35.24,59.9,138.95l169.67,97.45ZM239.55,107.17v63.04l54.64-31.78-54.64-31.26ZM49.38,156.81v206.45l180.19,103.75v-195.95l-42.55,24.43v97.45l-2.65-.77-91.53-52.8c-.32-.22-.91-1.07-.91-1.33v-107.69l1.07-.56,83.85,48.52,42.73-24.32L50.45,156.25l-1.07.56ZM249.01,467.02l180.19-103.75v-206.45l-1.07-.56-168.61,96.97c-.73,1,4.49,3.72,5.42,4.29,12.02,7.28,24.5,14.05,36.78,20.81l84.93-48.21v107.96c0,.26-.59,1.11-.91,1.33l-92.95,53.49-1.22-.71v-96.66l-42.55-23.9v195.42ZM111.89,327.28l55.15-31.78-55.15-31.78v63.56ZM311.52,295.76v63.56l54.64-32.3-54.64-31.26Z"/>
</svg>